<svg width="35" height="34" viewBox="0 0 35 34" fill="none" xmlns="http://www.w3.org/2000/svg">
<rect width="34.3736" height="34" rx="17" fill="#FF3131"/>
<path d="M22.9435 11.4004C20.9591 9.99151 18.5088 10.649 17.1859 12.2614C15.8631 10.649 13.4127 9.98369 11.4284 11.4004C10.3761 12.1518 9.7147 13.4198 9.6696 14.7582C9.56437 17.7952 12.15 20.2294 16.0961 23.963L16.1712 24.0334C16.7425 24.5735 17.6219 24.5735 18.1931 24.0256L18.2758 23.9473C22.2219 20.2216 24.8 17.7874 24.7023 14.7504C24.6572 13.4198 23.9957 12.1518 22.9435 11.4004ZM17.2611 22.7967L17.1859 22.875L17.1108 22.7967C13.533 19.4232 11.1729 17.1925 11.1729 14.9304C11.1729 13.365 12.3003 12.1909 13.8036 12.1909C14.9611 12.1909 16.0886 12.9658 16.4869 14.0381H17.8925C18.2833 12.9658 19.4108 12.1909 20.5683 12.1909C22.0716 12.1909 23.199 13.365 23.199 14.9304C23.199 17.1925 20.8389 19.4232 17.2611 22.7967Z" fill="white"/>
</svg>
